<svg width="86" height="117" fill="none" xmlns="http://www.w3.org/2000/svg"><g filter="url(#b)" clip-path="url(#a)"><path d="M82.82 4.01H3.33A3.19 3.19 0 0 0 .14 7.2V53.6a3.19 3.19 0 0 0 3.19 3.2h79.5A3.19 3.19 0 0 0 86 53.6V7.2A3.19 3.19 0 0 0 82.82 4ZM8.4 37.24h-.22a3.19 3.19 0 0 1-3.2-3.2v-7.28a3.19 3.19 0 0 1 3.2-3.18h.22v13.66ZM69.62 52.4H13.34v-44h56.28v44Zm8.78-17.86a4.15 4.15 0 1 1 0-8.29 4.15 4.15 0 0 1 0 8.3ZM54.65 0H31.5v2.76h23.15V0ZM46.6 64.86V61.9h8.05v-2.76H31.5v2.76h8.04v35.24a6.07 6.07 0 0 0-3.63 5.56V117h14.33v-14.3c0-2.5-1.5-4.63-3.63-5.56v-28h4.8l5.04 1.22v-6.71l-5.05 1.21h-4.8Z" fill="#363636"/><path d="M8.4 37.74h.5V23.08h-.73a3.69 3.69 0 0 0-3.7 3.68v7.29a3.69 3.69 0 0 0 3.7 3.69h.22ZM69.61 52.9h.5v-45H12.84v45h56.78ZM46.11 64.86v.5h5.35l.06-.01 4.43-1.07v5.44l-4.43-1.06-.06-.01H46.1v28.81l.3.13a5.56 5.56 0 0 1 3.34 5.1v13.81H36.41v-13.8a5.57 5.57 0 0 1 3.33-5.1l.3-.14V61.4H32v-1.76h22.15v1.76h-8.04v3.47ZM3.33 4.51h79.5c1.48 0 2.68 1.2 2.68 2.69V53.6c0 1.49-1.2 2.7-2.69 2.7H3.33a2.69 2.69 0 0 1-2.69-2.7V7.2c0-1.49 1.2-2.69 2.69-2.69Zm70.42 25.9a4.65 4.65 0 1 0 9.3 0 4.65 4.65 0 0 0-9.3 0ZM32 .5h22.15v1.76H32V.5Z" stroke="#000"/></g><defs><clipPath id="a"><path fill="#fff" d="M0 0h86v117H0z"/></clipPath><filter id="b" x="-3.86" y="0" width="93.87" height="125" filterUnits="userSpaceOnUse" color-interpolation-filters="sRGB"><feFlood flood-opacity="0" result="BackgroundImageFix"/><feColorMatrix in="SourceAlpha" values="0 0 0 0 0 0 0 0 0 0 0 0 0 0 0 0 0 0 127 0" result="hardAlpha"/><feOffset dy="4"/><feGaussianBlur stdDeviation="2"/><feComposite in2="hardAlpha" operator="out"/><feColorMatrix values="0 0 0 0 0 0 0 0 0 0 0 0 0 0 0 0 0 0 0.25 0"/><feBlend in2="BackgroundImageFix" result="effect1_dropShadow"/><feBlend in="SourceGraphic" in2="effect1_dropShadow" result="shape"/></filter></defs></svg>